<svg width="256" height="256" fill="none" xmlns="http://www.w3.org/2000/svg"><circle cx="128" cy="128" r="128" fill="#2D2D2D"/><mask id="mask0" mask-type="alpha" maskUnits="userSpaceOnUse" x="0" y="0" width="256" height="256"><circle cx="128" cy="128" r="128" fill="#000"/></mask><g mask="url('#mask0')" fill="#fff"><path d="M101.102 195.461c3.527 0 6.511-1.22 8.952-3.662 2.577-2.577 3.933-5.628 4.069-9.155V69.734c-.136-4.884-2.374-8.546-6.714-10.987-1.899-1.085-4.001-1.627-6.307-1.627h-2.644v-2.035h61.846l-.203 2.035h-2.441c-3.527 0-6.578 1.22-9.155 3.662-2.577 2.44-3.866 5.425-3.866 8.951v112.911c0 3.527 1.289 6.578 3.866 9.155 2.577 2.442 5.628 3.662 9.155 3.662h2.441l.203 2.035H98.458v-2.035h2.644Zm202.02 36.62c-9.901 5.154-18.92 7.731-27.058 7.731-8.138 0-15.462-1.153-21.972-3.459-16.14-5.832-32.619-19.191-49.437-40.078l-53.506-65.916 48.217-63.881c1.085-1.356 1.627-2.577 1.627-3.662s-.203-2.034-.61-2.848c-1.085-2.035-2.984-3.052-5.697-3.052h-2.034v-1.83h46.589v1.83h-.814c-9.087 0-16.479 3.255-22.175 9.765L176.58 113.88l55.337 68.764c12.342 16.276 23.938 28.076 34.789 35.4 10.85 7.324 22.921 11.325 36.213 12.003l.203 2.034Z"/><path d="M110.054 191.799c-2.441 2.442-5.425 3.662-8.952 3.662h-2.644v2.035h61.846l-.203-2.035h-2.441c-3.527 0-6.578-1.22-9.155-3.662-2.577-2.577-3.866-5.628-3.866-9.155V69.734c0-3.527 1.289-6.511 3.866-8.952 2.577-2.442 5.628-3.662 9.155-3.662h2.441l.203-2.035H98.458v2.035h2.644c2.306 0 4.408.542 6.307 1.627 4.34 2.441 6.578 6.103 6.714 10.986v112.911c-.136 3.527-1.492 6.578-4.069 9.155ZM16.003 191.799c-2.441 2.442-5.425 3.662-8.951 3.662H4.407v2.035h61.847l-.204-2.035H63.61c-3.526 0-6.578-1.22-9.155-3.662-2.577-2.577-3.865-5.628-3.865-9.155V69.733c0-3.526 1.288-6.51 3.865-8.952 2.577-2.44 5.629-3.661 9.155-3.661h2.441l.204-2.035H4.407v2.035H7.05c2.306 0 4.409.542 6.307 1.627 4.34 2.441 6.578 6.103 6.714 10.986v112.911c-.136 3.527-1.492 6.578-4.069 9.155Z"/><path d="M50.589 122.58h63.534v8.814H50.588v-8.814Z"/></g></svg>