<svg xmlns="http://www.w3.org/2000/svg" width="1057" height="347" fill="none"><path fill="#2C4190" d="M346.6 170.51c.36 47.77-15.9 89.09-48.92 123.53-24.79 25.85-55.02 42.22-90.16 49.45a164.17 164.17 0 0 1-36.6 3.43c-41.7-.84-78.62-14.62-110.36-41.69-26.93-22.96-45.09-51.68-54.65-85.77a161.43 161.43 0 0 1-5.56-31.22c-.07-.94-.22-1.87-.34-2.81L0 161.53c.63-5.43 1.1-10.88 1.99-16.28 3.2-19.55 9.42-38.1 19.18-55.33 24.54-43.33 60.88-71.62 109-84.62A152.86 152.86 0 0 1 163.3.2c51.96-2.31 96.52 14.82 133.3 51.49 24.13 24.05 39.4 53.14 46.47 86.48a161.74 161.74 0 0 1 3.53 32.34Z"/><path fill="#fff" d="M63.98 181.26v-47.78c0-.6.04-1.21 0-1.82-.07-.97.3-1.4 1.32-1.39 3.9.03 7.8.04 11.69 0 1.17-.02 1.52.5 1.44 1.57-.04.51 0 1.04 0 1.56l-.01 96.34c0 3.32.38 3.09-3.04 3.1-3.29 0-6.58-.03-9.87 0-1.06.02-1.64-.29-1.53-1.46.05-.6 0-1.2 0-1.81v-48.3Zm7.26-66.76c-3.92 0-7.3-1.08-9.05-4.86a10.68 10.68 0 0 1 .04-9.3c1.73-3.64 5-4.78 8.8-4.81 3.87-.03 7.21 1.05 9.07 4.77 2.75 5.5.3 12-5.06 13.7-1.26.4-2.55.47-3.8.5Zm141.19-44.57c0 20.04 0 40.08.02 60.12L198 149.37V69.63c0-3.6-.4-3.12 3.17-3.14 3.21-.03 6.43.02 9.61-.03 1.23-.03 1.78.4 1.67 1.63-.1.61-.03 1.24-.03 1.84Z"/><path fill="#fff" d="M291.3 218.25c-19.72 20.84-54.33 24.05-78.87-.1 0 4.43.03 8.42 0 12.36 0 2.27-.04 2.31-2.26 2.31-3.56.03-7.12 0-10.64.03-1.1 0-1.64-.3-1.55-1.47.05-.6.03-1.2.03-1.81v-27.35l13.86-18.57c1.16 19.53 18.64 38.1 40.18 38.1 22.13-.03 39.57-19.5 39.57-40.24 0-21.44-18.67-40.9-39.75-40.27-12.78-.35-24.69 6.8-32.14 17.11l-.1.23-44.49 59.76-.01.01-.07.09c-11.95 11.93-26.12 17.62-42.76 16.63-14.63-.88-26.65-7.18-36.59-17.85-18.6-20-18.12-51.87.14-71.84 20.41-22.32 56.25-24.21 79.14-1.61.67-.39.42-1.06.42-1.6.02-3.47.04-6.92 0-10.39-.02-1.21.21-1.92 1.69-1.88 3.72.1 7.44.06 11.16.01 1.12 0 1.61.38 1.5 1.5-.03.52 0 1.04 0 1.56v27.43l-13.98 18.7c-.7-19.72-18.8-38.03-39.57-38-21.03.02-40.08 19.4-40.04 40.6.04 20.59 18.17 40.04 40.2 40.04 13.94 0 25.93-7.67 32.92-18.21l-.02-.04 43.64-59.53.15-.22h.01c23.88-23.17 59.58-20.07 79.3 2 17.97 20.12 18.14 52.2-1.07 72.5Z"/><path fill="#fff" d="M189.77 213.25v17.6c-.04 1.93-.04 1.97-2.03 1.97-3.37.03-6.75.03-10.12.02-1.36-.02-1.87-.03-2.07-.56l14.22-19.03Z"/><path fill="#2C4190" d="M388.38 36.66h-10.56v71.39h10.56V36.66Zm58.1 71.39V78.1c0-15.75-7.64-25.15-20.44-25.15-6.33 0-11.98 2.4-16.85 7.16v-5.84h-10.18v53.78h10.18V85.16c0-7.9.57-12.17 3.94-16.55 3.07-4 7-6.04 11.68-6.04 5.68 0 11.48 1.95 11.48 16.38v29.1h10.19Zm21.64-8.68c-3.07 0-6.12-1.66-9.04-4.92l-1.42-1.6-6.49 7.4.96 1.23a20.7 20.7 0 0 0 16.28 7.89c9.5 0 16.95-7.33 16.95-16.68 0-9.15-5.75-12.42-15.26-17.85-1.13-.64-2.32-1.32-3.57-2.05a6.3 6.3 0 0 1-2.92-5.05c0-2.69 2.48-4.8 5.64-4.8 3.1 0 5.63 1.24 8.76 4.28l1.35 1.3 6.78-6.93-1.35-1.32c-3.7-3.62-8.4-7.32-15.16-7.32-8.92 0-15.64 6.52-15.64 15.17 0 9.39 6.2 12.82 16.46 18.52l1.86 1.03a6.17 6.17 0 0 1 3.15 5.3c0 3.53-3.29 6.4-7.34 6.4Zm40.78 8.68V63.7h10.26v-9.43H508.9V35.63h-10.2v18.64h-8.84v9.43h8.84v44.35h10.19Zm15.14 0h10.18V54.27h-10.18v53.78Zm5-59.98a7.36 7.36 0 0 0 7.26-7.26 7.22 7.22 0 0 0-14.42 0c0 4 3.2 7.26 7.16 7.26Zm40.86 6.2h-10.25V35.63h-10.19v18.64h-8.85v9.43h8.85v44.35h10.19V63.7h10.26v-9.43Zm28.81 55c10.87 0 23.83-4.72 23.83-27.22V54.27h-10.56v26.76c0 6.75 0 10.83-3.33 14.4-2.36 2.45-5.98 3.85-9.94 3.85-5.67 0-10.1-2.52-12.13-6.92-1.23-2.63-1.23-6.89-1.23-11.81V54.27h-10.56v27.78c0 22.5 13 27.22 23.92 27.22Zm39.92-1.22h10.18V63.7h10.26v-9.43h-10.26V35.63h-10.18v18.64h-8.86v9.43h8.86v44.35Zm35.57-33.91c2.87-7.43 8.21-11.2 15.93-11.2 7.87 0 13.53 3.96 16.18 11.2h-32.1Zm16.22 35.13c11.51 0 20.1-5.38 25.5-16l.85-1.66-8.59-4.52-.92 1.51c-3.5 5.74-8.04 11.05-17.5 11.05-9.12 0-15.81-6.52-16.82-16.08h44.9l-.02-1.91c-.19-16.9-11.61-28.7-27.78-28.7-17.27 0-27.6 14.4-27.6 28.34 0 13.56 9.8 27.97 27.98 27.97m87.28-46.32c9.54 0 17.6 8.45 17.6 18.45 0 10.08-7.73 17.97-17.6 17.97-10.04 0-17.6-7.73-17.6-17.97 0-10.18 7.9-18.45 17.6-18.45Zm0 46.42c15.68 0 27.97-12.33 27.97-28.07 0-15.9-12.29-28.35-27.97-28.35-15.69 0-27.98 12.45-27.98 28.35a27.73 27.73 0 0 0 27.98 28.07Zm39.06-1.32h10.19V63.7h10.54v-9.43h-10.54v-5.34c0-2.1-.01-4.07.68-4.77.5-.5 1.64-.6 2.51-.6 2.19 0 3.9.74 5.27 1.34l2.65 1.16V35.48l-1.32-.42a25.82 25.82 0 0 0-7.92-1.5c-10.62 0-12.06 7.47-12.06 14.79v5.92h-6.59v9.43h6.6v44.35ZM403.63 192c-9.81 0-17.79-8.27-17.79-18.45 0-10.24 7.86-18.26 17.88-18.26 10.25 0 17.98 7.94 17.98 18.45 0 11.86-9.31 18.26-18.07 18.26Zm-.66 9.62c7 0 13.11-2.34 18.26-6.98v5.76h10.09v-53.78h-10.09v5.92a25.2 25.2 0 0 0-18.07-7.24c-15.27 0-27.69 12.6-27.69 28.07 0 15.58 12.34 28.25 27.5 28.25m66.1 0c10.98 0 19.86-4.31 25.02-12.15l1.06-1.6-8.23-5.24-1.06 1.32c-4.3 5.34-9.86 8.05-16.51 8.05-11 0-19.3-7.97-19.3-18.54 0-10.36 8.26-18.17 19.2-18.17 7.02 0 12.6 2.67 16.58 7.92l1.04 1.37 8.22-5.09-.95-1.6c-4.72-7.88-13.91-12.59-24.6-12.59-17.02 0-29.86 12.3-29.86 28.63 0 15.78 12.64 27.69 29.39 27.69Zm60.91 0c10.98 0 19.87-4.31 25.03-12.15l1.05-1.6-8.22-5.24-1.06 1.32c-4.31 5.34-9.87 8.05-16.51 8.05-11 0-19.3-7.97-19.3-18.54 0-10.36 8.26-18.17 19.2-18.17 7.02 0 12.6 2.67 16.57 7.92l1.04 1.37 8.23-5.09-.96-1.6c-4.71-7.88-13.9-12.59-24.6-12.59-17.02 0-29.85 12.3-29.85 28.63 0 15.78 12.63 27.69 29.38 27.69Zm59.51-46.32c9.54 0 17.6 8.44 17.6 18.44 0 10.08-7.73 17.98-17.6 17.98-10.03 0-17.6-7.73-17.6-17.98 0-10.17 7.9-18.45 17.6-18.45Zm0 46.41c15.68 0 27.97-12.32 27.97-28.06 0-15.9-12.29-28.35-27.97-28.35-15.69 0-27.97 12.45-27.97 28.35 0 15.74 12.28 28.06 27.97 28.06Zm59.13-.09c10.87 0 23.83-4.72 23.83-27.22v-27.78h-10.56v26.76c0 6.75 0 10.82-3.33 14.4-2.36 2.44-5.99 3.85-9.94 3.85-5.68 0-10.1-2.52-12.13-6.92-1.24-2.63-1.24-6.89-1.24-11.81v-26.28H624.7v27.78c0 22.5 13.01 27.22 23.93 27.22Zm71.45-1.22h10.18v-29.95c0-15.75-7.64-25.15-20.43-25.15-6.33 0-11.98 2.4-16.85 7.16v-5.84h-10.18v53.78h10.18v-22.9c0-7.9.57-12.16 3.94-16.54 3.07-4.01 7-6.04 11.68-6.04 5.68 0 11.48 1.94 11.48 16.38v29.1Zm25.89 0h10.18v-44.35h10.27v-9.43h-10.26v-18.65h-10.19v18.65h-8.85v9.43h8.85v44.34Zm52.08-8.4c-9.81 0-17.8-8.27-17.8-18.45 0-10.24 7.86-18.26 17.89-18.26 10.25 0 17.98 7.94 17.98 18.45 0 11.86-9.31 18.26-18.07 18.26Zm17.6 2.64v5.76h10.09v-53.78h-10.1v5.92a25.2 25.2 0 0 0-18.06-7.24c-15.27 0-27.7 12.6-27.7 28.07 0 15.58 12.34 28.25 27.5 28.25 7 0 13.12-2.34 18.27-6.98m20.8-48.02v53.78h10.19v-22.9c0-7.9.56-12.16 3.94-16.54 3.07-4.01 7-6.04 11.68-6.04 5.68 0 11.48 1.94 11.48 16.37v29.1h10.18v-29.94c0-15.75-7.64-25.15-20.44-25.15-6.32 0-11.97 2.4-16.84 7.16v-5.84h-10.19Zm73.36 53.78v-44.35h10.27v-9.43H909.8v-18.65h-10.18v18.65h-8.85v9.43h8.85v44.34h10.18Zm27.68-8.68c-3.08 0-6.12-1.66-9.05-4.93l-1.42-1.59-6.48 7.4.95 1.23a20.7 20.7 0 0 0 16.28 7.88c9.5 0 16.95-7.32 16.95-16.67 0-9.15-5.74-12.42-15.26-17.85-1.13-.64-2.32-1.32-3.57-2.05a6.3 6.3 0 0 1-2.92-5.05c0-2.69 2.48-4.8 5.64-4.8 3.1 0 5.63 1.24 8.76 4.27l1.36 1.31 6.78-6.93-1.36-1.32c-3.7-3.62-8.4-7.32-15.16-7.32-8.91 0-15.63 6.52-15.63 15.17 0 9.38 6.19 12.82 16.45 18.52l1.86 1.03a6.16 6.16 0 0 1 3.15 5.3c0 3.53-3.29 6.4-7.33 6.4Zm75.73-36.69c-4.66-5.42-5.68-8.07-5.68-9.35 0-2.55 3.27-4.13 6.3-4.13 3.58 0 6.49 1.81 6.49 4.04 0 .86-.54 3.98-7.11 9.44Zm-1.32 14.22c4.75 5.36 9.14 9.78 13.05 13.72l1.52 1.53c-6.88 4.77-12.02 7.5-17.05 7.5-5.63 0-9.41-4.08-9.41-7.9 0-4.64 4.16-8.89 11.89-14.85m41.61 28.03c-2.41-2.82-5.01-5.43-7.76-8.2a335.99 335.99 0 0 1-3.71-3.77 241.8 241.8 0 0 0 5.52-4.78l2.32-2.03-7.11-7.7-1.39 1.27a255.5 255.5 0 0 1-6.82 5.9 529.79 529.79 0 0 1-14.69-15.1c6.56-5.75 10.83-10.98 10.83-17.19 0-8.18-7.01-14.13-16.67-14.13-9.61 0-16.86 6.04-16.86 14.04 0 5.38 3.07 9.83 7.87 15.64-8.56 6.93-15.4 13.64-15.4 23.25 0 12.03 9.91 17.52 19.12 17.52 10.19 0 16.94-4.1 24.94-10.03l.61.61c1.56 1.56 3.91 3.91 6.96 7.2l.56.62h14.34l-2.66-3.12Zm-629.73 72.17c0 10.3-7.85 18.36-17.88 18.36-10.25 0-17.98-7.98-17.98-18.55 0-11.86 9.26-18.26 17.98-18.26 9.86 0 17.88 8.28 17.88 18.45Zm-17.22-28.06c-6.91 0-13 2.37-18.17 7.05V223.4H378.2v73.08h10.18v-6.02a24.74 24.74 0 0 0 17.98 7.34c15.32 0 27.78-12.63 27.78-28.16 0-15.58-12.38-28.25-27.6-28.25m61.02 46.41c-10.03 0-17.6-7.72-17.6-17.97 0-10.18 7.9-18.45 17.6-18.45 9.54 0 17.6 8.45 17.6 18.45 0 10.08-7.73 17.98-17.6 17.98Zm0-46.41c-15.69 0-27.97 12.45-27.97 28.34 0 15.74 12.28 28.07 27.97 28.07s27.97-12.33 27.97-28.07c0-15.9-12.28-28.34-27.97-28.34Zm61.67 46.41c-10.03 0-17.6-7.72-17.6-17.97 0-10.18 7.9-18.45 17.6-18.45 9.54 0 17.6 8.45 17.6 18.45 0 10.08-7.73 17.98-17.6 17.98Zm0-46.41c-15.69 0-27.97 12.45-27.97 28.34 0 15.74 12.28 28.07 27.97 28.07s27.97-12.33 27.97-28.07c0-15.9-12.28-28.34-27.97-28.34Zm129.34 1.31h-15.28l-20.46 17.88V223.4h-10.19v72.97l-30.94-27.93 29.6-25.74h-15.27l-20.47 17.88V223.4h-10.18v73.08h10.18v-20.16L598 296.49h24.84v-20.16l22.43 20.16h14.77l-31.07-28.04 29.6-25.74Z"/><path fill="#2C4190" d="M669.22 262.57c2.86-7.43 8.21-11.2 15.93-11.2 7.86 0 13.53 3.96 16.18 11.2h-32.1Zm43.62 7.52c-.2-16.9-11.62-28.7-27.78-28.7-17.28 0-27.6 14.4-27.6 28.34 0 7.32 2.6 14.19 7.32 19.34 5.19 5.65 12.33 8.63 20.65 8.63 11.52 0 20.1-5.38 25.5-16l.86-1.66-8.6-4.52-.92 1.52c-3.5 5.73-8.04 11.05-17.5 11.05-9.1 0-15.8-6.52-16.81-16.1h44.9l-.02-1.9Zm17.58-7.52c2.86-7.43 8.21-11.2 15.93-11.2 7.86 0 13.53 3.96 16.18 11.2h-32.1Zm43.62 7.52c-.2-16.9-11.62-28.7-27.78-28.7-17.28 0-27.6 14.4-27.6 28.34 0 7.32 2.6 14.19 7.33 19.34 5.18 5.65 12.32 8.63 20.64 8.63 11.52 0 20.1-5.38 25.5-16l.86-1.66-8.6-4.52-.92 1.52c-3.5 5.73-8.04 11.05-17.5 11.05-9.1 0-15.8-6.52-16.81-16.1h44.9l-.02-1.9Zm53.84-.45c0 10.17-8.02 18.45-17.88 18.45-8.72 0-17.98-6.4-17.98-18.26 0-10.52 7.73-18.45 17.98-18.45 10.02 0 17.88 8.02 17.88 18.26Zm-17.41-28.25a25.07 25.07 0 0 0-17.98 7.23v-5.92h-10.18v72.05h10.18v-24.02a26.32 26.32 0 0 0 18.17 6.97c15.21 0 27.6-12.67 27.6-28.25 0-15.47-12.47-28.06-27.8-28.06m45.37 21.18c2.87-7.43 8.21-11.2 15.93-11.2 7.87 0 13.53 3.96 16.18 11.2h-32.1Zm43.62 7.52c-.2-16.9-11.62-28.7-27.78-28.7-17.28 0-27.6 14.4-27.6 28.34 0 7.32 2.6 14.19 7.33 19.34 5.18 5.65 12.32 8.63 20.64 8.63 11.52 0 20.1-5.38 25.51-16l.85-1.66-8.6-4.52-.91 1.52c-3.5 5.73-8.04 11.05-17.5 11.05-9.12 0-15.81-6.52-16.82-16.1h44.9l-.02-1.9Zm33.71-26.86a11.8 11.8 0 0 0-6.5-1.84c-4.05 0-7.63 1.64-11.02 5.12v-3.8H905.1v53.77h10.55v-20.9c0-5.72.12-11.46.97-14.67 1.61-5.88 5.06-9.53 9-9.53.94 0 1.82.37 2.55.74l1.55.77 5.33-8.59-1.88-1.07Zm15.62 8.15c3.09 0 5.63 1.24 8.76 4.27l1.35 1.3 6.78-6.93-1.35-1.32c-3.7-3.62-8.4-7.31-15.16-7.31-8.92 0-15.64 6.52-15.64 15.16 0 9.4 6.2 12.83 16.46 18.52l1.86 1.04a6.17 6.17 0 0 1 3.15 5.3c0 3.53-3.3 6.4-7.34 6.4-3.08 0-6.12-1.66-9.04-4.93l-1.43-1.6-6.48 7.4.95 1.23a20.69 20.69 0 0 0 16.28 7.89c9.5 0 16.96-7.33 16.96-16.67 0-9.15-5.75-12.43-15.27-17.86a477.8 477.8 0 0 1-3.56-2.04 6.3 6.3 0 0 1-2.92-5.06c0-2.69 2.48-4.8 5.64-4.8Z"/></svg>