<svg xmlns="http://www.w3.org/2000/svg" height="822" width="3052"><path d="M2497.99 766.332c-.266-.7-.368-61.796-.226-135.771l.257-134.5h41l.5 15.5c.314 9.735.872 15.353 1.5 15.106.55-.217 3.49-3.36 6.535-6.985 11.099-13.215 25.668-22.26 41.34-25.666 10.38-2.256 29.64-1.574 41.125 1.455 27.09 7.146 50.621 26.756 62.215 51.85 10.349 22.398 12.232 54.944 4.686 80.985-6.987 24.11-23.357 44.92-45.39 57.702-15.29 8.87-29.535 12.168-48.762 11.292-13.017-.594-21.247-2.704-32.364-8.299-7.107-3.577-20.537-13.307-25.322-18.347-1.616-1.701-3.524-3.093-4.241-3.093-1.05 0-1.354 9.659-1.563 49.75l-.26 49.75-20.273.27c-15.675.21-20.383-.016-20.757-1zm112.023-107.301c12.086-2.497 21.05-7.22 30.529-16.086 19.741-18.466 24.779-52.342 11.796-79.328-3.248-6.752-5.69-10.06-12.19-16.511-12.836-12.742-24.25-17.512-41.951-17.533-16.802-.02-29.482 5.563-41.23 18.153-10.442 11.192-15.628 22.785-17.472 39.059-2.448 21.611 3.788 41.63 17.334 55.648 14.505 15.01 32.971 20.773 53.184 16.598zm-1529.417 37.443c-15.07-2.957-30.958-11.43-43.896-23.408-3.27-3.028-6.436-5.505-7.034-5.505-.714 0-1.183 4.545-1.366 13.25l-.28 13.25h-41v-277h41l.26 54.459c.142 29.952.644 54.844 1.116 55.316.476.477 2.44-1.299 4.421-3.998 10.428-14.205 27.419-25.414 43.798-28.893 10.12-2.15 30.372-1.4 41.406 1.534 32.617 8.67 59.319 35.09 67.455 66.745 7.297 28.386 4.799 58.01-6.9 81.837-13.025 26.527-37.89 46.308-65.263 51.92-8.278 1.697-26.242 1.96-33.717.493zm22.956-38.498c21.992-6.464 39.267-25.434 43.487-47.753 5.455-28.854-4.519-55.074-26.94-70.822-16.353-11.485-39.967-13.29-57.947-4.43-15.214 7.498-27.834 23.976-32.256 42.118-2.266 9.293-2.277 27.607-.022 36.848 5.693 23.342 24.544 41.495 47.41 45.655 6.392 1.163 19.572.352 26.269-1.616zm186.982 37.513c-38.882-8.405-68.756-37.277-78.176-75.553-2.934-11.923-3.183-34.88-.514-47.306 4.985-23.209 18.744-44.682 37.858-59.085 20.648-15.559 41.876-21.815 70.196-20.69 29.088 1.157 49.904 10.018 69.715 29.679 20.249 20.094 29.908 43.518 29.908 72.527 0 29.667-10.78 54.843-32.09 74.946-12.552 11.84-26.042 19.393-43.21 24.19-7.878 2.202-11.716 2.627-26.7 2.957-14.881.328-18.92.079-26.987-1.665zm41.941-37.381c9.184-2.481 17.865-7.412 25.148-14.282 8.128-7.668 12.706-14.8 16.546-25.775 2.578-7.368 2.796-9.158 2.808-22.99.012-14.195-.15-15.459-3.032-23.544-7.139-20.035-22.603-34.476-42.424-39.615-8.652-2.244-25.384-2.245-33.876 0-16.136 4.262-31.541 16.562-38.459 30.707-5.686 11.627-7.122 18.46-7.03 33.454.067 11.217.44 14.097 2.712 21 3.294 10.005 7.084 16.622 13.613 23.766 8.989 9.835 21.646 16.611 35.01 18.742 7.217 1.151 22.09.401 28.984-1.462zm186.267 37.418c-17.091-3.69-29.455-9.47-42.458-19.843-17.846-14.238-29.698-32.206-35.454-53.75-2.36-8.831-2.638-11.664-2.638-26.872 0-15.256.274-18.026 2.67-27 8.05-30.16 30.54-55.728 59.659-67.818 22.12-9.185 54.261-10.267 77.314-2.604 27.003 8.978 51.067 31.07 61.722 56.665 9.226 22.16 10.48 49.828 3.294 72.622-10.286 32.623-37.525 58.458-70.958 67.299-13.868 3.667-39.307 4.29-53.151 1.3zm41.733-37.418c10.551-2.851 18.064-7.363 26.557-15.948 12.245-12.38 17.115-23.925 18.177-43.099 2.013-36.345-19.786-63.979-54.07-68.541-21.028-2.798-41.62 4.389-55.03 19.207-11.48 12.686-15.987 25.465-15.987 45.334 0 15.045 1.556 22.16 7.201 32.928 8.723 16.637 25.447 28.595 44.168 31.58 7.217 1.152 22.09.402 28.984-1.461zm578.954 37.96c-20.06-3.794-39.677-14.24-54.403-28.964-11.555-11.555-20.55-27.627-24.72-44.166-1.907-7.56-2.24-11.549-2.24-26.877 0-21.282 1.73-30.016 8.966-45.291 17.547-37.043 52.087-58.209 94.989-58.209 51.582 0 90.108 30.496 94.094 74.481.509 5.61.346 7.445-.719 8.126-.756.484-33.078 14.203-71.825 30.486s-70.62 30.115-70.827 30.738c-.574 1.72 8.79 10.216 15.934 14.456 10.025 5.952 17.452 7.915 32.022 8.466 22.036.833 36.727-4.317 51.395-18.016l7.725-7.214 7.429 7.989c12.821 13.787 16.519 18.402 15.945 19.898-.981 2.556-16.629 15.182-24.95 20.132-9.063 5.39-19.32 9.627-30.637 12.65-10.077 2.694-37.006 3.429-48.178 1.316zm14.334-116.657c41.876-18.034 53.758-23.54 53.758-24.91 0-2.72-7.252-11.256-12.537-14.757-17.724-11.74-45.647-11.342-66.06.94-7.605 4.576-17.47 13.748-21.438 19.931-1.796 2.799-4.322 7.999-5.613 11.556-3.833 10.56-5.524 30.39-2.591 30.39.397 0 24.914-10.418 54.48-23.15zm200.456 116.56c-18.6-3.361-36.63-12.76-51.377-26.783-14.354-13.649-21.988-26.5-27.101-45.616-2.251-8.414-2.55-11.528-2.599-27.011-.061-19.544 1.45-28.106 7.548-42.753 7.3-17.537 25.213-38.074 41.034-47.049 30.264-17.168 69.055-18.943 102.297-4.682 16.901 7.25 34.702 24.938 41.53 41.266 4.951 11.84 7.591 29.709 4.72 31.948-.688.536-32.75 14.16-71.25 30.275s-70.45 29.714-71 30.221c-.643.593 1.388 3.192 5.688 7.28 11.964 11.376 26.084 16.444 45.902 16.477 20.24.033 35.95-6.273 49.534-19.883 3.143-3.15 5.656-4.897 6.5-4.52 2.028.903 22.326 23.827 22.67 25.603.652 3.36-19.67 19.27-33.294 26.065-7.744 3.862-19.238 7.522-28.935 9.213-10.858 1.893-31.248 1.869-41.867-.05zm13.073-115.85c28.674-12.341 53.07-22.94 54.215-23.553l2.082-1.114-2.268-4.034c-2.997-5.332-9.371-11.101-15.95-14.435-6.913-3.503-9.768-4.319-18.85-5.387-32.357-3.806-64.45 17.31-71.451 47.016-1.602 6.795-2.125 23.947-.731 23.947.45 0 24.279-10.098 52.953-22.44zm433.242 115.363c-16.212-3.497-29.466-9.728-42.513-19.988-21.897-17.219-33.666-39.23-36.635-68.512-3.265-32.199 6.397-60.902 28.239-83.895 12.516-13.177 28.751-22.37 49.027-27.763 7.234-1.924 10.876-2.223 26.869-2.206 15.74.017 19.823.351 27.374 2.241 26.204 6.56 48.16 22.748 58.591 43.2 4.288 8.408 7.103 18.609 7.732 28.025l.57 8.526-71.242 29.924c-39.183 16.459-71.478 30.542-71.767 31.296-1.431 3.727 14.693 15.51 27.242 19.905 7.437 2.606 9.09 2.803 23.5 2.803 14.433 0 16.05-.194 23.49-2.813 10.162-3.578 17.367-7.968 25.88-15.769 5.711-5.232 6.964-5.977 8.067-4.796.719.77 6.136 6.735 12.038 13.256l10.731 11.857-4.353 4.52c-11.883 12.334-32.558 24.196-50.377 28.9-14.074 3.716-38.437 4.315-52.463 1.29zm16.987-116.145c28.325-12.156 52.122-22.667 52.882-23.358 1.167-1.06 1.042-1.806-.805-4.794-3.14-5.08-11.351-12.143-17.385-14.954-7.442-3.466-14.633-4.913-24.535-4.937-11.295-.028-18.843 1.61-28.657 6.216-20.025 9.399-31.952 23.524-36.001 42.637-1.523 7.187-2.015 20.563-.801 21.776.88.881-4.55 3.1 55.302-22.586zM1678.767 555.83l.254-138.77h41l.256 80.25c.201 63.217.52 80.242 1.5 80.21.684-.022 18.794-18.469 40.244-40.993l39-40.953 26.25-.01c15.071 0 26.25.38 26.25.901 0 .5-16.425 18.042-36.5 38.983-20.075 20.94-36.5 38.58-36.5 39.198 0 .617 17.775 27.418 39.5 59.556s39.5 58.865 39.5 59.394c0 .589-9.641.961-24.906.961h-24.906l-29.154-43c-16.034-23.65-29.47-43-29.856-43-.387 0-7.328 6.638-15.426 14.75l-14.723 14.75-.264 28-.265 28-20.754.27-20.753.27.253-138.77zm201 0l.254-138.77h41l.256 80.322c.206 64.876.503 80.26 1.542 80 .708-.177 18.805-18.66 40.217-41.072l38.93-40.75h26.277c14.453 0 26.278.367 26.278.816 0 .45-16.313 17.867-36.25 38.705-24.31 25.409-36.23 38.562-36.186 39.934.035 1.125 17.698 28.098 39.25 59.941 21.552 31.843 39.186 58.288 39.186 58.767 0 .48-11.305.751-25.123.604l-25.123-.267-28.455-42c-15.65-23.1-28.878-42.436-29.396-42.969-.598-.616-6.391 4.473-15.907 13.973l-14.966 14.94-.265 28.028-.265 28.028-20.754.27-20.753.27zm1066.215 137.48c-.262-.687-.36-45.35-.22-99.25l.259-98 20.75-.27 20.75-.27.015 17.27c.01 9.498.402 17.88.875 18.627.635 1.003 1.791-.046 4.422-4.009 4.315-6.5 12.917-15.447 19.978-20.777 9.81-7.406 26.824-14.071 35.92-14.071h3.79v41.724l-7.75.695c-10.689.958-15.574 2.243-23.984 6.307-9.815 4.744-18.722 14.156-24.131 25.5-8.027 16.833-9.095 26.679-9.118 84.024l-.017 43.75h-20.531c-15.505 0-20.648-.306-21.008-1.25zm-1428.836-254.25c-25.414-5.247-46.063-17.855-59.252-36.179-5.24-7.28-11.373-18.727-11.373-21.226 0-1.325 4.142-3.533 16.75-8.929 9.212-3.942 17.288-7.167 17.945-7.167.658 0 2.908 3.26 5 7.245 4.59 8.742 14.347 19.373 21.203 23.104 9.589 5.219 15.82 6.822 28.602 7.356 38.376 1.606 56.624-18.707 59.116-65.807.407-7.69.295-12.834-.288-13.194-.525-.324-3.401 1.91-6.391 4.967-6.87 7.022-11.984 10.548-22.264 15.35-13.432 6.274-19.082 7.423-36.173 7.354-12.168-.048-16.51-.471-23-2.24-13.52-3.684-24.752-9.72-34.5-18.543-22.648-20.495-33.097-47.024-31.703-80.486.69-16.566 3.1-26.99 9.229-39.928 16.987-35.86 50.374-54.965 89.41-51.163 18.031 1.756 33.054 7.661 46.745 18.373 3.945 3.087 7.656 5.613 8.246 5.613.695 0 1.073-3.66 1.073-10.393 0-8.554.28-10.5 1.582-11 .87-.334 9.814-.607 19.877-.607 14.553 0 18.536.29 19.47 1.415.887 1.068 1.08 24.51.786 95.75-.426 103.812-.25 100.698-6.806 120.265-7.867 23.482-22.692 40.708-44.41 51.6-15.13 7.587-22.48 9.186-44 9.568-12.765.227-19.998-.093-24.874-1.099zm37.617-127.147c18.45-5.418 33.08-20.816 38.336-40.353 2.365-8.789 2.365-26.211 0-35-5.165-19.198-20.119-35.689-37.123-40.941-19.257-5.948-40.039-2.1-53.727 9.949-6.521 5.74-13.535 16.771-17.088 26.874-2.742 7.798-3.034 9.808-3.062 21.118-.035 14.242 1.328 20.159 7.25 31.469 7.322 13.982 20.732 24.74 34.172 27.416 3.025.603 6.4 1.3 7.5 1.548 3.55.804 18.33-.49 23.742-2.08zm-243.658 51.54c-27.183-3.964-54.666-20.71-69.591-42.403-5.13-7.456-10.843-20.43-13.646-30.99-2.391-9.006-2.655-11.74-2.655-27.5 0-15.77.263-18.488 2.658-27.491 8.882-33.398 32.78-59.159 65.079-70.153 17.81-6.062 41.1-7.365 60.57-3.39 39.765 8.122 69 38.637 69.405 72.445l.096 8.04-70.243 29.524c-38.634 16.239-71.034 30.048-72 30.688-1.576 1.042-1.104 1.791 4.575 7.26 20.796 20.03 59.1 22.844 84.298 6.197 4.053-2.678 9.376-6.95 11.828-9.495 2.452-2.544 4.965-4.625 5.584-4.625 1.556 0 22.886 23.826 23.259 25.98.596 3.445-17.972 18.003-32.027 25.11-19.85 10.04-44.86 14.06-67.19 10.803zm12.646-118.507c27.648-11.882 50.664-21.972 51.147-22.422 2.375-2.216-9.596-15.014-18.054-19.3-5.903-2.991-18.088-5.664-25.823-5.664-9.653 0-20.351 2.718-30.5 7.748-7.615 3.774-11.11 6.3-17.608 12.73-9.11 9.012-13.496 16.8-15.928 28.276-1.42 6.7-1.996 21.38-.883 22.494.694.693-4.269 2.747 57.649-23.862zm496.27 118.99c-18.454-2.797-33.437-7.058-47.242-13.433-9.693-4.476-25.258-14.386-25.258-16.08 0-1.2 16.334-28.26 18.521-30.684.97-1.074 2.759-.304 9.585 4.128 20.895 13.567 38.548 19.701 57.394 19.945 12.594.162 19.32-1.977 25.432-8.089 8.526-8.526 8.932-17.414 1.15-25.148-5.729-5.692-15.775-10.616-32.582-15.97-29.881-9.516-41.545-14.984-52.175-24.459-10.428-9.294-16.36-21.946-16.308-34.783.027-6.712 2.651-17.497 5.996-24.646 3.98-8.506 15.716-20.16 25.518-25.34 19.528-10.322 49.327-13.12 73.608-6.91 15.467 3.957 35.95 13.606 36.656 17.268.333 1.73-13.324 29.825-14.498 29.825-.38 0-4.566-2.002-9.305-4.45-4.738-2.447-12.638-5.675-17.554-7.173-7.95-2.422-10.596-2.732-23.938-2.8-17.031-.087-22.627 1.272-29.516 7.168-4.593 3.932-6.384 8.741-5.743 15.418.915 9.522 6.503 12.94 33.02 20.198 44.186 12.093 63.099 23.745 70.915 43.69 3.009 7.676 3.722 26.776 1.343 35.949-5.658 21.814-22.567 37.61-47.223 44.115-7.644 2.017-30.422 3.38-37.796 2.262zm166-.852c-19.141-4.202-35.027-16.55-43.41-33.742-7.36-15.094-7.168-11.555-6.862-126.782l.272-102.5h41l.264 30.75.265 30.75h24.403c13.422 0 25.116.273 25.986.607 1.353.52 1.582 2.973 1.582 16.983v16.376l-25.75.267-25.75.267v112l2.37 4.77c8.367 16.844 29.885 20.185 45.833 7.117 2.4-1.967 4.952-3.35 5.67-3.074.72.276 4.846 6.679 9.169 14.228l7.86 13.727-2.951 2.396c-17.922 14.555-39.678 20.31-59.951 15.86zm147 .433c-40.804-6.327-72.944-34.365-83.204-72.585-2.388-8.895-2.655-11.654-2.706-27.872-.048-15.413.264-19.26 2.164-26.774 8.606-34.02 33.497-60.985 66.109-71.617 22.667-7.39 50.54-7.296 72.708.246 33.084 11.255 56.069 39.404 56.758 69.51l.17 7.466-70.956 29.84c-39.026 16.413-71.426 30.323-72 30.911-1.827 1.873 10.317 12.264 19.654 16.817 11.277 5.499 22.051 7.546 35.876 6.816 17.842-.94 31.467-6.74 44.518-18.95 3.498-3.271 6.794-5.795 7.325-5.607 1.774.628 23.084 24.897 23.084 26.29 0 1.792-12.71 12.745-21 18.1-12.545 8.1-24.246 13.005-38.362 16.082-8.538 1.861-31.746 2.629-40.138 1.327zm9.075-117.115c28.31-12.187 52.25-22.73 53.2-23.43 1.626-1.198 1.615-1.475-.194-4.862-7.005-13.113-26.038-21.449-46.081-20.183-10.867.686-17.569 2.567-27.5 7.717-20.945 10.862-31.46 26.185-34.078 49.658-1.108 9.94-.684 13.258 1.695 13.258.816 0 24.647-9.971 52.958-22.158zm328.867 116.777c-15.3-2.51-28.175-7.595-41.25-16.295-15.567-10.358-28.856-25.922-35.37-41.424-11.66-27.752-10.928-63.81 1.811-89.188 19.815-39.473 58.973-60.652 104.72-56.637 26.369 2.314 46.321 11.176 62.647 27.825 12.316 12.56 18.86 26.426 20.954 44.4.852 7.31.765 8.363-.802 9.7-.967.825-33.346 14.773-71.955 30.996-45.742 19.22-70.197 29.987-70.197 30.905 0 1.965 7.263 8.667 14.374 13.263 17.426 11.263 46.204 12.942 66.224 3.864 7.944-3.602 13.91-7.705 20.41-14.035 2.819-2.746 5.496-4.993 5.948-4.993.691 0 7.093 6.791 21.993 23.332l2.55 2.832-6.555 6.225c-13.527 12.845-31.005 22.418-49.775 27.262-11.984 3.093-33.28 4.01-45.727 1.968zm11.927-117.338c29.079-12.507 53.086-23.303 53.35-23.991.749-1.951-6.286-10.802-11.807-14.855-2.745-2.014-8.235-4.824-12.201-6.243-6.318-2.26-8.76-2.576-19.711-2.551-10.775.025-13.605.393-20.5 2.668-17.089 5.639-32.012 17.827-38.858 31.737-4.073 8.275-6.642 19.704-6.642 29.542 0 5.436.266 6.414 1.75 6.423.962.01 25.541-10.223 54.62-22.73zm196.13 117.235c-34.532-6.429-64.38-34.442-73.403-68.89-6.96-26.572-4.81-58.955 5.33-80.309 17.289-36.405 57.271-58.784 96.965-54.274 18.678 2.123 32.886 9.048 46.273 22.556 4.49 4.531 8.428 7.975 8.75 7.653.322-.322.586-24.37.586-53.439V83.521l20.75.27 20.75.27v277h-41l-.28-13.25c-.175-8.366-.663-13.25-1.323-13.25-.574 0-3.358 2.53-6.185 5.624-10.848 11.87-25.92 19.832-43.26 22.856-10.404 1.815-24.321 1.83-33.952.036zm38-37.027c19.567-4.126 37.42-20.675 43.53-40.35 4.73-15.235 4.39-34.453-.865-48.852-7.746-21.225-23.517-35.498-44.025-39.845-8.45-1.791-13.883-1.776-22.64.062-11.68 2.452-20.832 7.613-30.152 17.001-14.113 14.215-20.177 30.893-19.07 52.449 1.126 21.907 9.445 37.61 26.297 49.636 14.026 10.008 30.213 13.423 46.926 9.899zM992.99 360.33c-.266-.698-.368-59.544-.226-130.769l.257-129.5 55-.306c57.298-.318 72.16.32 88.982 3.826 20.889 4.352 32.705 10.102 44.072 21.444 14.246 14.216 19.35 28.279 20.152 55.536.42 14.233.191 17.928-1.659 26.896-2.551 12.366-5.692 20.241-11.678 29.277-7.76 11.713-20.211 21.25-35.166 26.934-4.515 1.716-6.184 2.828-5.899 3.93.219.847 15.115 21.949 33.103 46.895 18.619 25.822 32.329 45.732 31.832 46.229-.48.48-12.962.752-27.737.606l-26.864-.267-29.77-41.867c-16.373-23.027-30.543-42.72-31.488-43.765-1.622-1.792-3.312-1.883-30.299-1.633l-28.581.265-.5 43.5-.5 43.5-21.274.27c-16.476.209-21.383-.016-21.757-1zm128.222-129.573c10.602-2.325 20.016-6.96 24.491-12.057 8.27-9.418 12.23-26.232 10.105-42.889-2.592-20.316-11.74-29.601-33.533-34.04-6.878-1.4-14.675-1.682-46.754-1.695l-38.5-.015-.26 45.385c-.2 34.707.027 45.733.966 46.864 1.057 1.273 6.313 1.408 37.76.97 31.669-.44 37.758-.777 45.725-2.523zm558.996 130.157c-.378-.377-.687-44.846-.687-98.82 0-74.992.283-98.416 1.2-99.333 1.38-1.38 37.433-1.72 39.555-.373.995.633 1.202 21.246 1 99.735l-.255 98.938-20.063.27c-11.035.149-20.373-.039-20.75-.417zm592 0c-.378-.377-.687-45.113-.687-99.413 0-89.103.154-98.785 1.582-99.333 2.062-.791 36.774-.791 38.836 0 1.36.522 1.582 3.106 1.582 18.5 0 10.114.396 17.893.912 17.893.502 0 2.924-2.812 5.383-6.25 13.11-18.33 36.703-32.75 53.58-32.75 3.407 0 4.179.374 4.64 2.25.304 1.238.425 10.575.269 20.75l-.284 18.5-8.39.695c-27.575 2.285-45.044 17.672-52.868 46.566l-2.637 9.739-.553 51.5-.552 51.5-20.063.27c-11.035.149-20.373-.039-20.75-.417zM1694.327 129.2c-4.954-1.373-6.276-2.178-11.644-7.087-5.618-5.137-7.616-10.005-7.616-18.552 0-8.948 2.013-13.495 8.704-19.663 5.368-4.948 10.315-6.768 18.284-6.728 10.18.052 19.808 6.786 23.98 16.77 2.083 4.986 1.871 15.176-.42 20.222-5.277 11.618-19.307 18.361-31.288 15.038z" fill="#99999b"/><path d="M388.708 823.545c-80.567-5.951-156.46-33.74-219-80.189-17.853-13.26-26.672-20.845-43.84-37.704C51.43 632.548 9.822 539.618 3.035 431.31.259 387.032 8.58 329.934 24.831 281.737 65.077 162.38 162.027 65.43 281.385 25.183 329.582 8.933 386.68.611 430.958 3.386c108.613 6.806 201.37 48.429 274.842 123.329 31.312 31.921 53.28 62.525 73.463 102.345 22.233 43.864 35.27 87.255 41.617 138.5 2.546 20.554 2.546 71.447 0 92-9.932 80.204-38.423 148.258-88.544 211.5-12.213 15.411-46.161 49.367-61.628 61.642-68.451 54.328-143.22 83.424-233.5 90.866-11.88.98-35.074.968-48.5-.024zm52-31.03c85.855-6.362 168.084-42.208 230.5-100.483 36.174-33.773 62.714-69.815 84.493-114.741 49.994-103.132 49.994-224.33 0-327.461-20.164-41.595-41.374-71.353-74.392-104.37-33.017-33.018-62.775-54.228-104.37-74.392-102.979-49.92-224.104-49.933-327.372-.035-39.813 19.237-70.073 40.51-101.707 71.501-33.213 32.537-56.966 65.557-77.036 107.091-50.05 103.575-50.09 224.56-.108 327.666 20.164 41.595 41.374 71.353 74.392 104.37 33.017 33.017 62.775 54.228 104.37 74.391 59.016 28.61 125.68 41.32 191.23 36.463zm-60-22.02c-55.627-5.635-104.49-21.62-151.5-49.558-49.764-29.577-93.956-73.781-123.598-123.634-26.219-44.097-41.822-90.27-48.576-143.743-1.78-14.097-1.78-65.902 0-80 7.64-60.488 26.986-112.77 59.579-161 24.073-35.623 59.972-71.522 95.595-95.595 48.23-32.592 100.512-51.94 161-59.578 14.098-1.78 65.903-1.78 80 0 44.38 5.604 82.462 16.877 119.243 35.297 34.691 17.374 62.271 36.877 89.623 63.376 30.706 29.75 52.46 59.422 71.485 97.5 18.554 37.14 29.677 73.485 35.193 115 2.21 16.639 3.047 56.798 1.543 74.07-9.986 114.657-70.183 213.368-167.845 275.235-14.381 9.11-44.559 24.081-61.467 30.493-25.977 9.85-54.168 16.922-82.775 20.764-14.57 1.957-63.23 2.82-77.5 1.374zm60-307.37c15.458-4.54 32.956-14.168 40.988-22.551 1.587-1.658 3.252-3.014 3.7-3.014.447 0 .812 5.12.812 11.378 0 8.496.353 11.67 1.391 12.532.93.77 5.492 1.06 13.75.872l12.36-.282v-191l-12.36-.281c-8.258-.188-12.82.101-13.75.872-1.04.863-1.39 4.048-1.39 12.61v11.454l-5.25-4.416c-11.559-9.722-24.634-16.67-40.25-21.39-8.325-2.516-10.314-2.72-26.5-2.711-20.092.011-27.399 1.466-41.706 8.305-30.117 14.397-50.687 40.389-57.423 72.557-1.618 7.731-1.618 29.27 0 37 6.395 30.54 25.67 56.085 53.128 70.412 16.334 8.522 28.584 11.189 49 10.667 12.009-.307 16.047-.825 23.5-3.015zm-44.284-25.528c-25.253-6.807-47.18-29.507-52.77-54.632-2.469-11.102-1.606-29.193 1.873-39.24 7.961-22.99 28.674-42.408 51.448-48.233 10.061-2.573 26.272-2.618 35.801-.099 19.287 5.098 36.58 19.329 46.35 38.14 11.49 22.126 10.476 49.724-2.623 71.397-4.656 7.702-18.052 21.084-25.479 25.452-11 6.469-18.776 8.507-33.816 8.86-10.996.26-14.85-.045-20.784-1.645zm256.96 26.114c21.963-5.81 40.09-17.665 54.069-35.36 14.747-18.666 21.686-38.437 21.686-61.79 0-44.714-29.554-83.619-73.43-96.666-8.148-2.423-10.61-2.684-26-2.756-14.81-.069-18.096.22-25.5 2.235-14.749 4.015-31.817 12.991-42.376 22.286-3.214 2.829-4.776 3.662-5.125 2.735-.276-.734-.614-32.61-.751-70.835l-.249-69.5h-27l-.253 153.73-.253 153.73 2.253.56c1.24.309 7.428.43 13.753.27l11.5-.29.281-12.25c.155-6.737.68-12.25 1.168-12.25.489 0 3.287 2.061 6.22 4.58 12.356 10.613 29.118 18.856 45.831 22.539 11.325 2.495 32.87 2.023 44.176-.968zm-43-26.18c-18.13-4.748-35.121-17.846-45.078-34.745-9.79-16.615-12.252-38.14-6.549-57.226 5.575-18.652 21.522-36.86 39.951-45.612 10.294-4.888 17.334-6.388 30-6.388 13.235 0 19.911 1.517 31.5 7.156 7.08 3.445 10.09 5.74 18.01 13.74 10.38 10.483 15.893 18.9 19.062 29.104 5.984 19.274 4.629 37.92-4.034 55.5-9.546 19.375-27.388 34.112-47.102 38.905-9.215 2.24-26.346 2.033-35.76-.433zm-302.196 23.067c1.276-2.383.97-187.42-.31-188.704-1.33-1.335-23.189-1.661-25.579-.382l-2.09 1.119v93.765c0 71.594.283 94.048 1.2 94.964.802.803 5.258 1.2 13.464 1.2 11.164 0 12.36-.176 13.315-1.962zm-3.574-219.304c9.198-5.26 11.817-15.923 6.354-25.866-5.894-10.728-25.443-11.28-32.485-.919-6.345 9.336-2.695 23.343 7.207 27.658 4.947 2.155 14.39 1.72 18.924-.873z" fill="#2f408f"/></svg>