<svg width="256" height="256" viewBox="0 0 256 256" fill="none" xmlns="http://www.w3.org/2000/svg">
<circle cx="128" cy="128" r="128" fill="white"/>
<mask id="mask0" mask-type="alpha" maskUnits="userSpaceOnUse" x="0" y="0" width="256" height="256">
<circle cx="128" cy="128" r="128" fill="black"/>
</mask>
<g mask="url(#mask0)">
<path d="M101.102 195.461C104.629 195.461 107.613 194.241 110.054 191.799C112.631 189.222 113.987 186.171 114.123 182.644V69.7331C113.987 64.8504 111.749 61.1884 107.409 58.7471C105.51 57.6621 103.408 57.1196 101.102 57.1196H98.4576V55.0851H160.304L160.101 57.1196H157.66C154.133 57.1196 151.082 58.3402 148.505 60.7815C145.928 63.2229 144.639 66.2067 144.639 69.7331V182.644C144.639 186.171 145.928 189.222 148.505 191.799C151.082 194.241 154.133 195.461 157.66 195.461H160.101L160.304 197.496H98.4576V195.461H101.102ZM303.122 232.081C293.221 237.235 284.202 239.812 276.064 239.812C267.926 239.812 260.602 238.659 254.092 236.353C237.952 230.521 221.473 217.162 204.655 196.275L151.149 130.359L199.366 66.478C200.451 65.1217 200.993 63.901 200.993 62.816C200.993 61.731 200.79 60.7816 200.383 59.9678C199.298 57.9333 197.399 56.9161 194.686 56.9161H192.652V55.0851H239.241V56.9161H238.427C229.34 56.9161 221.948 60.1712 216.252 66.6814L176.58 113.88L231.917 182.644C244.259 198.92 255.855 210.72 266.706 218.044C277.556 225.368 289.627 229.369 302.919 230.047L303.122 232.081Z" fill="#2D2D2D"/>
<path d="M110.054 191.799C107.613 194.241 104.629 195.461 101.102 195.461H98.4576V197.496H160.304L160.101 195.461H157.66C154.133 195.461 151.082 194.241 148.505 191.799C145.928 189.222 144.639 186.171 144.639 182.644V69.7331C144.639 66.2067 145.928 63.2229 148.505 60.7815C151.082 58.3402 154.133 57.1196 157.66 57.1196H160.101L160.304 55.0851H98.4576V57.1196H101.102C103.408 57.1196 105.51 57.6621 107.409 58.7471C111.749 61.1884 113.987 64.8504 114.123 69.7331V182.644C113.987 186.171 112.631 189.222 110.054 191.799Z" fill="#2D2D2D"/>
<path d="M16.003 191.799C13.5617 194.241 10.5779 195.461 7.0515 195.461H4.40674V197.496H66.2536L66.0502 195.461H63.6089C60.0825 195.461 57.0308 194.241 54.4539 191.799C51.8769 189.222 50.5885 186.171 50.5885 182.644V69.733C50.5885 66.2067 51.8769 63.2228 54.4539 60.7815C57.0308 58.3402 60.0825 57.1195 63.6089 57.1195H66.0502L66.2536 55.0851H4.40674V57.1195H7.0515C9.3572 57.1195 11.4595 57.662 13.3583 58.7471C17.6984 61.1884 19.9363 64.8504 20.0719 69.733V182.644C19.9363 186.171 18.58 189.222 16.003 191.799Z" fill="#2D2D2D"/>
<path d="M50.5885 122.58H114.123V131.394H50.5885V122.58Z" fill="#2D2D2D"/>
</g>
</svg>
